<?xml version="1.0" encoding="UTF-8" standalone="no"?>
<svg
   xmlns:dc="http://purl.org/dc/elements/1.1/"
   xmlns:cc="http://creativecommons.org/ns#"
   xmlns:rdf="http://www.w3.org/1999/02/22-rdf-syntax-ns#"
   xmlns:svg="http://www.w3.org/2000/svg"
   xmlns="http://www.w3.org/2000/svg"
   xmlns:sodipodi="http://sodipodi.sourceforge.net/DTD/sodipodi-0.dtd"
   xmlns:inkscape="http://www.inkscape.org/namespaces/inkscape"
   version="1.1"
   width="500"
   height="500"
   id="svg2"
   inkscape:version="0.91 r13725"
   sodipodi:docname="hjul.svg"
   inkscape:export-filename="/home/niels/diku/kantine/infoscreen/content/res/roulette/hjul.png"
   inkscape:export-xdpi="194.39999"
   inkscape:export-ydpi="194.39999">
  <metadata
     id="metadata203">
    <rdf:RDF>
      <cc:Work
         rdf:about="">
        <dc:format>image/svg+xml</dc:format>
        <dc:type
           rdf:resource="http://purl.org/dc/dcmitype/StillImage" />
      </cc:Work>
    </rdf:RDF>
  </metadata>
  <sodipodi:namedview
     pagecolor="#ffffff"
     bordercolor="#666666"
     borderopacity="1"
     objecttolerance="10"
     gridtolerance="10"
     guidetolerance="10"
     inkscape:pageopacity="0"
     inkscape:pageshadow="2"
     inkscape:window-width="1920"
     inkscape:window-height="1080"
     id="namedview201"
     showgrid="false"
     inkscape:zoom="1.3350176"
     inkscape:cx="99.332232"
     inkscape:cy="231.14476"
     inkscape:window-x="0"
     inkscape:window-y="0"
     inkscape:window-maximized="0"
     inkscape:current-layer="svg2" />
  <title
     id="title3">European roulette wheel</title>
  <desc
     id="desc5">First published Betzaar.com under the CreativeCommons Attribution+ShareAlike licence</desc>
  <defs
     id="defs393" />
  <g
     transform="matrix(0.99800399,0,0,0.99802391,-17.964072,72.35175)"
     id="g8">
    <g
       id="g10">
      <g
         id="g12">
        <g
           id="XMLID_2_">
          <g
             id="g15">
            <g
               id="XMLID_1_">
              <g
                 id="g18">
                <path
                   d="m 516.5,146.245 c 1.33,10.42 2,21 2,31.75 0,3.5 -0.09,7 -0.25,10.5 l -249.54,-10.5 247.75,-31.75 h 0.04 z"
                   id="path20"
                   style="fill:#ff0000" />
                <path
                   d="m 268.71,177.995 249.54,10.5 c -0.54,14.43 -2.38,28.54 -5.34,42.2 l -244.2,-52.66 h -0.08 -0.01 l -0.03,-0.04 h 0.12 z"
                   id="path22" />
                <path
                   d="m 516.5,146.245 h -0.04 l -247.75,31.75 -0.12,-0.01 0.03,-0.03 0.02,-0.01 238.9,-73.2 h 0.04 c 4.13,13.38 7.13,27.25 8.92,41.5 z"
                   id="path24" />
                <polygon
                   points="512.91,230.705 268.71,178.035 512.91,230.695 "
                   id="polygon26"
                   style="fill:#ff0000" />
                <path
                   d="m 512.91,230.705 c -2.95,14.01 -7.12,27.58 -12.37,40.57 l -0.08,-0.04 -231.75,-93.2 244.2,52.67 z"
                   id="path28"
                   style="fill:#ff0000" />
                <path
                   d="m 507.58,104.745 h -0.04 l -238.9,73.2 223.15,-112.49 h 0.04 c 3.56,7.05 6.8,14.29 9.68,21.7 2.24,5.77 4.27,11.63 6.07,17.59 z"
                   id="path30"
                   style="fill:#ff0000" />
                <path
                   d="m 491.83,65.455 c 3.57,7.05 6.8,14.29 9.68,21.7 -2.88,-7.41 -6.12,-14.65 -9.68,-21.7 z"
                   id="path32"
                   style="fill:#ff0000" />
                <path
                   d="m 500.46,271.245 0.08,0.04 c -5.29,13.22 -11.71,25.84 -19.08,37.79 h -0.05 l -212.73,-130.99 -0.01,-0.01 -0.04,-0.04 h 0.08 l 231.75,93.21 z"
                   id="path34" />
                <path
                   d="m 490.61,63.075 c 0.41,0.79 0.819,1.58 1.22,2.38 h -0.04 l -223.15,112.49 -0.02,0.01 v -0.04 -0.01 L 469.54,29.285 c 3.88,5.23 7.57,10.63 11.03,16.18 1.7,2.71 3.35,5.47 4.939,8.25 0,0 0.011,0 0.011,0.01 0.88,1.54 1.739,3.09 2.59,4.64 0,0 0.01,0 0.01,0.01 0.84,1.56 1.68,3.13 2.49,4.7 z"
                   id="path36" />
                <path
                   d="m 481.46,309.075 v 0.01 c -7.46,12.13 -15.91,23.58 -25.3,34.2 l -0.04,-0.04 -187.44,-165.16 212.73,130.99 h 0.05 z"
                   id="path38"
                   style="fill:#ff0000" />
                <path
                   d="m 469.54,29.285 -200.92,148.62 v -0.04 -0.01 l 172.88,-180.28 0.08,-0.08 c 1.28,1.23 2.54,2.46 3.79,3.71 8.75,8.76 16.81,18.13 24.17,28.08 z"
                   id="path40"
                   style="fill:#ff0000" />
                <path
                   d="m 456.16,343.285 v 0.01 c -3.5,3.96 -7.12,7.82 -10.87,11.55 -0.63,0.631 -1.26,1.25 -1.89,1.87 -5.681,5.551 -11.63,10.83 -17.82,15.82 L 268.54,178.045 v -0.01 -0.04 h 0.04 l 0.04,0.04 h 0.01 l 0.04,0.04 0.01,0.01 187.44,165.16 0.04,0.04 z"
                   id="path42" />
                <path
                   d="m 441.58,-2.515 c 1.28,1.23 2.55,2.47 3.79,3.72 -1.25,-1.25 -2.51,-2.48 -3.79,-3.71 v -0.01 z"
                   id="path44"
                   style="fill:#ff0000" />
                <polygon
                   points="441.57,-2.505 441.58,-2.505 441.5,-2.425 441.5,-2.435 "
                   id="polygon46" />
                <path
                   d="m 441.57,-2.505 -0.07,0.07 v 0.01 l -172.88,180.28 v -0.03 l 139.88,-206.87 0.08,-0.12 c 0.72,0.48 1.43,0.97 2.15,1.47 5.85,4.04 11.52,8.33 16.989,12.85 1.36,1.13 2.71,2.27 4.051,3.42 2.01,1.73 3.989,3.5 5.939,5.29 1.301,1.2 2.591,2.4 3.861,3.63 z"
                   id="path48" />
                <path
                   d="m 268.54,178.045 157.04,194.49 c -4.79,3.9 -9.74,7.61 -14.81,11.13 -4.351,3.01 -8.801,5.891 -13.36,8.62 -1.521,0.91 -3.05,1.81 -4.59,2.68 -0.771,0.44 -1.54,0.88 -2.32,1.311 h -0.01 l -0.03,-0.03 -121.91,-218.1 -0.01,-0.03 v -0.01 -0.061 z"
                   id="path50"
                   style="fill:#ff0000" />
                <path
                   d="m 408.58,-29.175 c 0.72,0.49 1.44,0.98 2.15,1.48 -0.721,-0.5 -1.431,-0.99 -2.15,-1.47 v -0.01 z"
                   id="path52" />
                <path
                   d="m 408.58,-29.175 v 0.01 c -0.73,-0.49 -1.46,-0.99 -2.19,-1.47 0.74,0.48 1.46,0.97 2.19,1.46 z"
                   id="path54"
                   style="fill:#ff0000" />
                <path
                   d="m 408.58,-29.165 -0.08,0.12 -139.88,206.87 102.92,-227.62 v -0.01 l 0.04,-0.07 c 8.1,3.67 15.97,7.75 23.59,12.23 2.28,1.34 4.53,2.71 6.771,4.12 0,0.01 0,0.01 0.01,0.01 1.479,0.94 2.96,1.9 4.43,2.87 0,0 0,0 0.01,0.01 0.729,0.48 1.459,0.98 2.189,1.47 z"
                   id="path56"
                   style="fill:#ff0000" />
                <path
                   d="m 401.95,-33.515 c 1.49,0.94 2.97,1.89 4.43,2.87 -1.47,-0.97 -2.95,-1.93 -4.43,-2.87 z"
                   id="path58"
                   style="fill:#ff0000" />
                <path
                   d="m 395.17,-37.645 c 2.28,1.33 4.54,2.71 6.771,4.12 -2.241,-1.41 -4.491,-2.78 -6.771,-4.12 z"
                   id="path60"
                   style="fill:#ff0000" />
                <path
                   d="m 390.49,396.275 0.01,0.01 c -10.75,6.06 -22.02,11.31 -33.71,15.7 11.69,-4.4 22.95,-9.65 33.7,-15.71 z"
                   id="path62" />
                <path
                   d="m 390.46,396.245 0.03,0.03 c -10.75,6.06 -22.01,11.31 -33.7,15.71 -0.84,0.31 -1.68,0.62 -2.52,0.93 -0.83,0.3 -1.681,0.601 -2.521,0.9 l -83.2,-235.67 121.911,218.1 z"
                   id="path64" />
                <path
                   d="m 371.58,-49.885 v 0.01 c -2.4,-1.09 -4.83,-2.14 -7.27,-3.15 2.44,1.01 4.87,2.06 7.27,3.14 z"
                   id="path66" />
                <path
                   d="m 371.58,-49.875 -0.04,0.07 v 0.01 l -102.92,227.62 v 0.03 0.01 h -0.04 l 62.92,-241.83 v -0.04 c 3.47,0.89 6.91,1.86 10.311,2.9 2.56,0.78 5.09,1.6 7.609,2.46 4.2,1.44 8.34,2.98 12.44,4.62 0.819,0.33 1.63,0.66 2.45,1 2.44,1.01 4.87,2.06 7.27,3.15 z"
                   id="path68" />
                <path
                   d="m 349.42,-58.645 c 4.2,1.43 8.34,2.97 12.44,4.62 -4.1,-1.64 -8.24,-3.18 -12.44,-4.62 z"
                   id="path70" />
                <path
                   d="m 354.271,412.915 c -0.83,0.311 -1.681,0.61 -2.521,0.91 v -0.01 c 0.84,-0.299 1.69,-0.6 2.521,-0.9 z"
                   id="path72" />
                <path
                   d="m 351.75,413.815 v 0.01 c -12.38,4.38 -25.17,7.76 -38.36,10.12 13.2,-2.37 25.98,-5.75 38.36,-10.13 z"
                   id="path74"
                   style="fill:#ff0000" />
                <path
                   d="m 268.55,178.146 83.2,235.67 c -12.38,4.38 -25.16,7.76 -38.36,10.13 -0.88,0.16 -1.76,0.31 -2.64,0.46 v -0.08 l -42.2,-246.18 z"
                   id="path76"
                   style="fill:#ff0000" />
                <path
                   d="m 341.811,-61.105 c 2.56,0.78 5.09,1.6 7.609,2.46 -2.52,-0.86 -5.05,-1.68 -7.609,-2.46 z"
                   id="path78" />
                <path
                   d="m 331.5,-64.005 v 0.04 l -62.92,241.83 v 0.04 h -0.04 v -0.16 l 21.17,-248.79 v -0.08 c 8.96,0.76 17.771,1.99 26.42,3.65 2.59,0.5 5.17,1.04 7.73,1.62 2.56,0.58 5.11,1.19 7.64,1.85 z"
                   id="path80"
                   style="fill:#ff0000" />
                <path
                   d="m 316.13,-67.475 c 2.59,0.5 5.17,1.04 7.73,1.62 -2.56,-0.58 -5.14,-1.12 -7.73,-1.62 z"
                   id="path82"
                   style="fill:#ff0000" />
                <path
                   d="m 289.71,-71.135 c 8.96,0.76 17.771,1.99 26.42,3.66 -8.649,-1.66 -17.46,-2.89 -26.42,-3.65 v -0.01 z"
                   id="path84"
                   style="fill:#ff0000" />
                <path
                   d="m 310.75,424.325 v 0.08 c -0.86,0.15 -1.72,0.29 -2.58,0.43 -9.42,1.521 -19.03,2.5 -28.8,2.92 -0.07,0.011 -0.14,0.011 -0.21,0.011 -3.53,0.149 -7.09,0.22 -10.66,0.22 v -249.65 -0.01 -0.17 -0.04 h 0.04 l 0.01,0.03 42.2,246.179 z"
                   id="path86" />
                <path
                   d="m 289.71,-71.125 v 0.08 l -21.17,248.79 -21.25,-248.79 v -0.01 -0.07 c 7,-0.59 14.09,-0.87 21.21,-0.87 7.17,0 14.21,0.29 21.21,0.87 z"
                   id="path88"
                   style="fill:#006600" />
                <polygon
                   points="268.59,177.995 268.59,177.985 268.71,177.995 "
                   id="polygon90" />
                <rect
                   width="0.039999999"
                   height="0.039999999"
                   x="268.57999"
                   y="177.91499"
                   id="rect92"
                   style="fill:#ff0000" />
                <rect
                   width="0.039999999"
                   height="0.0099999998"
                   x="268.57999"
                   y="177.905"
                   id="rect94"
                   style="fill:#ff0000" />
                <rect
                   width="0.039999999"
                   height="0.039999999"
                   x="268.57999"
                   y="177.86501"
                   id="rect96"
                   style="fill:#ff0000" />
                <polygon
                   points="268.58,177.955 268.62,177.955 268.59,177.985 268.58,177.985 "
                   id="polygon98"
                   style="fill:#ff0000" />
                <polygon
                   points="268.62,178.035 268.58,177.995 268.59,177.995 "
                   id="polygon100" />
                <rect
                   width="0.0099999998"
                   height="0.0099999998"
                   x="268.57999"
                   y="177.985"
                   id="rect102"
                   style="fill:#ff0000" />
                <rect
                   width="0.039999999"
                   height="0.0099999998"
                   x="268.54001"
                   y="177.985"
                   id="rect104"
                   style="fill:#ff0000" />
                <rect
                   width="0.039999999"
                   height="0.029999999"
                   x="268.54001"
                   y="177.955"
                   id="rect106"
                   style="fill:#ff0000" />
                <rect
                   width="0.039999999"
                   height="0.039999999"
                   x="268.54001"
                   y="177.91499"
                   id="rect108" />
                <rect
                   width="0.039999999"
                   height="0.0099999998"
                   x="268.54001"
                   y="177.905"
                   id="rect110" />
                <rect
                   width="0.039999999"
                   height="0.0099999998"
                   x="268.5"
                   y="178.035"
                   id="rect112" />
                <rect
                   width="0.039999999"
                   height="0.0099999998"
                   x="268.5"
                   y="178.105"
                   id="rect114" />
                <polygon
                   points="268.5,178.105 268.5,178.075 268.5,178.045 268.54,178.045 268.54,178.105 "
                   id="polygon116" />
                <rect
                   width="0.039999999"
                   height="0.039999999"
                   x="268.5"
                   y="177.995"
                   id="rect118"
                   style="fill:#ff0000" />
                <polygon
                   points="268.5,177.995 268.5,177.955 268.54,177.955 268.54,177.985 268.54,177.995 "
                   id="polygon120"
                   style="fill:#ff0000" />
                <path
                   d="m 268.54,177.915 v 0.04 h -0.04 l -0.04,-0.09 -102.96,-227.66 -0.04,-0.08 c 6.39,-2.9 12.95,-5.53 19.63,-7.89 1.67,-0.59 3.35,-1.16 5.04,-1.72 0.85,-0.28 1.69,-0.55 2.54,-0.82 1.7,-0.54 3.41,-1.06 5.12,-1.56 0.85,-0.25 1.71,-0.5 2.57,-0.74 1.72,-0.48 3.45,-0.95 5.18,-1.39 v 0.03 l 63,241.87 v 0.01 z"
                   id="path122"
                   style="fill:#ff0000" />
                <path
                   d="m 268.54,177.745 v 0.16 l -63,-241.87 v -0.03 -0.01 c 10.13,-2.63 20.51,-4.64 31.1,-5.99 1.76,-0.22 3.53,-0.43 5.31,-0.62 1.77,-0.19 3.56,-0.36 5.34,-0.51 v 0.07 0.01 l 21.25,248.79 z"
                   id="path124" />
                <path
                   d="m 268.5,427.985 v 0.01 c -14.38,0 -28.5,-1.21 -42.21,-3.58 v -0.08 -0.01 l 42.21,-245.99 v 249.65 z"
                   id="path126"
                   style="fill:#ff0000" />
                <path
                   d="m 268.5,178.325 v 0.01 l -42.21,245.99 v 0.01 0.08 c -14.12,-2.34 -27.83,-5.91 -41,-10.58 v -0.01 l 83.21,-235.67 v 0.17 z"
                   id="path128" />
                <path
                   d="m 268.5,178.115 v 0.04 l -83.21,235.67 c -10.97,-3.87 -21.58,-8.47 -31.76,-13.76 -2.36,-1.221 -4.68,-2.48 -6.99,-3.78 l 0.04,-0.04 121.92,-218.13 z"
                   id="path130"
                   style="fill:#ff0000" />
                <path
                   d="m 268.5,178.105 v 0.01 l -121.92,218.13 -0.04,0.04 c -2.33,-1.3 -4.63,-2.63 -6.91,-3.99 -1.52,-0.91 -3.03,-1.84 -4.52,-2.779 -5.24,-3.301 -10.34,-6.79 -15.3,-10.471 -1.41,-1.05 -2.82,-2.12 -4.21,-3.2 -1.39,-1.09 -2.77,-2.18 -4.14,-3.3 v -0.01 L 268.5,178.075 v 0.03 z"
                   id="path132" />
                <path
                   d="m 268.5,178.045 v 0.03 l -157.04,194.46 c -6.91,-5.54 -13.48,-11.45 -19.73,-17.69 -1.88,-1.869 -3.72,-3.77 -5.52,-5.689 -1.81,-1.93 -3.59,-3.89 -5.34,-5.87 l 0.04,-0.04 187.46,-165.12 0.08,-0.06 0.02,-0.01 h 0.01 l 0.02,-0.011 z"
                   id="path134"
                   style="fill:#ff0000" />
                <polygon
                   points="268.48,178.045 268.5,178.035 268.5,178.045 268.48,178.056 "
                   id="polygon136" />
                <path
                   d="m 268.5,177.995 v 0.04 l -0.02,0.01 -231.9,93.2 -0.12,0.04 c -1.96,-4.88 -3.77,-9.83 -5.43,-14.86 -2.77,-8.38 -5.1,-16.96 -6.95,-25.71 v -0.01 l 244.36,-52.71 h 0.02 0.04 z"
                   id="path138" />
                <rect
                   width="0.039999999"
                   height="0.039999999"
                   x="268.45999"
                   y="177.955"
                   id="rect140" />
                <path
                   d="m 268.46,177.865 0.04,0.09 h -0.04 L 67.5,29.285 c 8.38,-11.37 17.75,-22 27.96,-31.79 l 0.08,0.08 172.92,180.29 z"
                   id="path142" />
                <polygon
                   points="268.48,178.056 268.47,178.056 268.48,178.045 "
                   id="polygon144" />
                <polygon
                   points="268.45,178.065 268.43,178.075 36.58,271.245 268.48,178.045 268.47,178.056 "
                   id="polygon146"
                   style="fill:#ff0000" />
                <path
                   d="m 268.46,177.955 v 0.04 h -0.02 L 20.58,146.245 H 20.5 c 1.57,-12.47 4.06,-24.65 7.42,-36.49 0.48,-1.68 0.98,-3.37 1.5,-5.04 l 0.08,0.03 238.91,73.21 h 0.05 z"
                   id="path148"
                   style="fill:#ff0000" />
                <path
                   d="m 165.5,-49.795 102.96,227.66 -139.96,-206.91 -0.08,-0.08 c 9.48,-6.43 19.43,-12.22 29.79,-17.33 2.4,-1.18 4.81,-2.32 7.25,-3.42 l 0.04,0.08 z"
                   id="path150" />
                <path
                   d="M 128.5,-29.045 268.46,177.865 95.54,-2.425 95.46,-2.505 c 10.16,-9.78 21.2,-18.7 32.95,-26.62 h 0.01 l 0.08,0.08 z"
                   id="path152"
                   style="fill:#ff0000" />
                <path
                   d="m 268.46,177.955 h -0.05 L 45.21,65.455 h -0.04 c 6.41,-12.71 13.87,-24.83 22.33,-36.17 l 200.96,148.67 z"
                   id="path154"
                   style="fill:#ff0000" />
                <path
                   d="m 268.44,177.995 -244.36,52.71 c -0.22,-0.99 -0.42,-1.99 -0.63,-2.99 -0.84,-4.14 -1.58,-8.34 -2.21,-12.569 -1.31,-8.74 -2.15,-17.641 -2.49,-26.65 h 0.04 l 249.65,-10.501 z"
                   id="path156"
                   style="fill:#ff0000" />
                <path
                   d="m 268.44,177.995 -249.65,10.5 h -0.04 c -0.04,-0.87 -0.08,-1.75 -0.11,-2.63 -0.06,-1.74 -0.1,-3.5 -0.12,-5.24 -0.01,-0.88 -0.02,-1.76 -0.02,-2.63 0,-10.75 0.67,-21.32 2,-31.75 h 0.08 l 247.86,31.75 z"
                   id="path158" />
                <path
                   d="m 268.43,178.075 -0.06,0.03 -212.75,130.96 v 0.01 l -0.04,0.04 c -1.86,-2.99 -3.65,-6.03 -5.37,-9.1 -5.16,-9.221 -9.75,-18.82 -13.75,-28.73 l 0.12,-0.04 231.85,-93.17 z"
                   id="path160"
                   style="fill:#ff0000" />
                <path
                   d="m 268.41,177.955 -238.91,-73.21 -0.08,-0.03 v -0.01 c 0.78,-2.55 1.6,-5.09 2.45,-7.61 0.29,-0.84 0.58,-1.68 0.87,-2.52 3.54,-10.02 7.68,-19.75 12.43,-29.12 h 0.04 l 223.2,112.5 z"
                   id="path162" />
                <path
                   d="m 268.37,178.115 -187.46,165.13 -0.04,0.04 c -8.19,-9.3 -15.69,-19.19 -22.44,-29.63 -0.96,-1.5 -1.91,-3 -2.84,-4.521 0,-0.01 -0.01,-0.01 -0.01,-0.02 l 0.04,-0.04 212.75,-130.959 z"
                   id="path164" />
                <polygon
                   points="55.62,309.075 55.62,309.065 268.37,178.115 "
                   id="polygon166" />
                <path
                   d="m 236.64,-69.995 c 1.76,-0.23 3.53,-0.43 5.31,-0.62 -1.78,0.19 -3.55,0.4 -5.31,0.62 z"
                   id="path168" />
                <path
                   d="m 165.46,-49.885 v 0.01 c -2.44,1.1 -4.85,2.24 -7.25,3.42 2.4,-1.18 4.81,-2.32 7.25,-3.43 z"
                   id="path170" />
                <path
                   d="m 128.41,-29.135 c 9.48,-6.43 19.43,-12.22 29.8,-17.32 -10.36,5.11 -20.31,10.9 -29.79,17.33 h -0.01 v -0.01 z"
                   id="path172" />
                <path
                   d="m 45.16,65.455 h 0.01 c -4.75,9.37 -8.89,19.101 -12.43,29.12 3.53,-10.019 7.67,-19.75 12.42,-29.12 z"
                   id="path174" />
                <path
                   d="m 31.87,97.095 c -0.85,2.521 -1.67,5.061 -2.45,7.61 h -0.01 c 0.78,-2.559 1.6,-5.1 2.46,-7.61 z"
                   id="path176" />
                <path
                   d="m 29.42,104.705 v 0.01 c -0.52,1.67 -1.02,3.36 -1.5,5.04 0.48,-1.689 0.97,-3.37 1.49,-5.05 h 0.01 z"
                   id="path178"
                   style="fill:#ff0000" />
                <path
                   d="m 21.24,215.146 c 0.63,4.229 1.37,8.43 2.21,12.569 -0.84,-4.15 -1.58,-8.34 -2.21,-12.569 z"
                   id="path180"
                   style="fill:#ff0000" />
                <path
                   d="m 18.52,180.625 c 0.02,1.74 0.06,3.5 0.12,5.24 -0.06,-1.74 -0.1,-3.5 -0.12,-5.24 z"
                   id="path182" />
              </g>
              <g
                 id="g184">
                <path
                   d="m 268.5,427.995 c -14.38,0 -28.5,-1.21 -42.21,-3.58 -14.12,-2.34 -27.83,-5.91 -41,-10.58 -10.97,-3.87 -21.58,-8.47 -31.76,-13.77 -2.36,-1.221 -4.68,-2.48 -6.99,-3.771 -2.33,-1.3 -4.63,-2.63 -6.91,-4 -1.52,-0.91 -3.03,-1.84 -4.52,-2.779 -5.24,-3.301 -10.34,-6.79 -15.3,-10.471 -1.41,-1.05 -2.82,-2.12 -4.21,-3.2 -1.39,-1.079 -2.77,-2.18 -4.14,-3.289 l -0.01,-0.011 c -6.91,-5.55 -13.49,-11.46 -19.72,-17.7 -1.88,-1.869 -3.72,-3.77 -5.52,-5.689 -1.82,-1.92 -3.59,-3.87 -5.34,-5.85 -8.2,-9.29 -15.7,-19.2 -22.44,-29.65 -0.96,-1.5 -1.91,-3 -2.84,-4.521 0,-0.01 -0.01,-0.01 -0.01,-0.02 -1.86,-2.99 -3.65,-6.03 -5.37,-9.1 -5.17,-9.221 -9.76,-18.811 -13.75,-28.71 -1.96,-4.881 -3.77,-9.841 -5.43,-14.881 -2.77,-8.38 -5.1,-16.96 -6.95,-25.71 v -0.01 c -0.22,-0.99 -0.42,-1.99 -0.63,-2.99 -0.84,-4.14 -1.58,-8.34 -2.21,-12.569 -1.31,-8.74 -2.15,-17.641 -2.49,-26.65 -0.04,-0.87 -0.08,-1.75 -0.11,-2.63 -0.06,-1.74 -0.1,-3.5 -0.12,-5.24 -0.01,-0.88 -0.02,-1.76 -0.02,-2.63 0,-10.75 0.67,-21.32 2,-31.75 1.57,-12.47 4.06,-24.65 7.42,-36.49 0.48,-1.68 0.98,-3.37 1.5,-5.04 v -0.01 c 0.78,-2.55 1.6,-5.09 2.45,-7.61 0.29,-0.84 0.58,-1.68 0.87,-2.52 3.54,-10.02 7.68,-19.75 12.43,-29.12 6.41,-12.71 13.87,-24.83 22.33,-36.17 8.38,-11.37 17.75,-22 27.96,-31.79 10.16,-9.78 21.2,-18.7 32.95,-26.62 h 0.01 c 9.48,-6.43 19.43,-12.22 29.79,-17.33 2.4,-1.18 4.81,-2.32 7.25,-3.42 6.39,-2.9 12.95,-5.53 19.63,-7.89 1.67,-0.59 3.35,-1.17 5.04,-1.72 0.85,-0.28 1.69,-0.55 2.54,-0.82 1.7,-0.54 3.41,-1.06 5.12,-1.56 0.85,-0.25 1.71,-0.5 2.57,-0.74 1.72,-0.49 3.45,-0.95 5.18,-1.4 10.13,-2.63 20.51,-4.64 31.1,-5.99 1.76,-0.22 3.53,-0.43 5.31,-0.62 1.77,-0.19 3.56,-0.36 5.34,-0.51 7,-0.59 14.09,-0.87 21.21,-0.87 7.17,0 14.21,0.29 21.21,0.87 8.96,0.76 17.771,1.99 26.42,3.65 2.59,0.5 5.17,1.04 7.73,1.62 2.56,0.58 5.109,1.19 7.64,1.85 3.47,0.89 6.91,1.86 10.311,2.9 2.56,0.78 5.09,1.6 7.609,2.46 4.2,1.44 8.34,2.98 12.44,4.62 0.819,0.33 1.63,0.66 2.45,1 2.439,1.01 4.869,2.06 7.27,3.15 8.1,3.67 15.97,7.75 23.59,12.23 2.28,1.34 4.53,2.71 6.771,4.12 0,0.01 0,0.01 0.01,0.01 1.479,0.94 2.96,1.9 4.43,2.87 0,0 0,0 0.01,0.01 0.73,0.48 1.46,0.98 2.19,1.47 0.72,0.48 1.43,0.97 2.15,1.47 5.85,4.04 11.52,8.33 16.989,12.85 1.36,1.12 2.71,2.26 4.051,3.42 2.01,1.73 3.989,3.49 5.939,5.29 1.3,1.19 2.59,2.4 3.86,3.63 h 0.01 c 1.28,1.23 2.54,2.46 3.79,3.71 8.75,8.76 16.81,18.13 24.17,28.08 3.88,5.23 7.57,10.63 11.03,16.18 1.7,2.71 3.35,5.46 4.939,8.25 0,0 0.011,0 0.011,0.01 0.88,1.53 1.739,3.08 2.59,4.64 0,0 0.01,0 0.01,0.01 0.85,1.55 1.68,3.12 2.49,4.7 0.41,0.79 0.819,1.58 1.22,2.38 3.56,7.05 6.8,14.29 9.68,21.7 2.24,5.77 4.271,11.63 6.07,17.59 4.13,13.38 7.13,27.25 8.92,41.5 1.33,10.42 2,21 2,31.75 0,3.5 -0.09,7 -0.25,10.5 -0.54,14.43 -2.38,28.54 -5.34,42.2 v 0.01 c -2.95,14.01 -7.12,27.58 -12.37,40.57 v 0.01 c -5.29,13.22 -11.71,25.84 -19.08,37.79 v 0.01 c -7.46,12.13 -15.91,23.58 -25.3,34.2 v 0.01 c -3.5,3.96 -7.12,7.82 -10.87,11.55 -0.62,0.631 -1.25,1.25 -1.89,1.87 -5.681,5.551 -11.63,10.83 -17.82,15.82 -4.79,3.9 -9.74,7.61 -14.81,11.13 -4.351,3.021 -8.801,5.891 -13.36,8.62 -1.521,0.91 -3.05,1.81 -4.59,2.68 -0.771,0.44 -1.54,0.88 -2.32,1.311 h -0.01 c -10.75,6.06 -22.01,11.31 -33.7,15.71 -0.84,0.31 -1.68,0.62 -2.52,0.93 -0.83,0.3 -1.681,0.601 -2.521,0.9 -12.38,4.38 -25.16,7.76 -38.36,10.13 -0.88,0.16 -1.76,0.31 -2.64,0.46 -0.86,0.15 -1.72,0.29 -2.58,0.43 -9.42,1.53 -19.03,2.51 -28.8,2.92 -0.07,0.011 -0.14,0.011 -0.21,0.011 -3.529,0.159 -7.089,0.229 -10.659,0.229 z"
                   id="path186"
                   style="fill:none;stroke:#000" />
                <polyline
                   points="268.5,178.335 268.5,427.985 268.5,427.995        "
                   id="polyline188"
                   style="fill:none;stroke:#000" />
                <line
                   x1="268.54999"
                   y1="178.146"
                   x2="310.75"
                   y2="424.32501"
                   id="line190"
                   style="fill:none;stroke:#000" />
                <polyline
                   points="268.55,178.146 351.75,413.815 351.75,413.825        "
                   id="polyline192"
                   style="fill:none;stroke:#000" />
                <polyline
                   points="268.54,178.115 268.55,178.146 390.46,396.245        "
                   id="polyline194"
                   style="fill:none;stroke:#000" />
                <polyline
                   points="268.54,178.045 425.58,372.535 425.62,372.575        "
                   id="polyline196"
                   style="fill:none;stroke:#000" />
                <line
                   x1="268.67999"
                   y1="178.08501"
                   x2="456.12"
                   y2="343.245"
                   id="line198"
                   style="fill:none;stroke:#000" />
                <polyline
                   points="268.63,178.035 268.67,178.075 268.68,178.085 481.41,309.075        "
                   id="polyline200"
                   style="fill:none;stroke:#000" />
                <line
                   x1="268.70999"
                   y1="178.035"
                   x2="500.45999"
                   y2="271.245"
                   id="line202"
                   style="fill:none;stroke:#000" />
                <polyline
                   points="268.58,177.995 268.62,178.035 268.63,178.035 268.71,178.035          512.91,230.705        "
                   id="polyline204"
                   style="fill:none;stroke:#000" />
                <line
                   x1="268.70999"
                   y1="177.995"
                   x2="518.25"
                   y2="188.495"
                   id="line206"
                   style="fill:none;stroke:#000" />
                <polyline
                   points="268.59,177.995 268.71,177.995 516.46,146.245        "
                   id="polyline208"
                   style="fill:none;stroke:#000" />
                <line
                   x1="268.64001"
                   y1="177.94501"
                   x2="507.54001"
                   y2="104.745"
                   id="line210"
                   style="fill:none;stroke:#000" />
                <polyline
                   points="268.58,177.995 268.59,177.995 268.59,177.985 268.62,177.955        "
                   id="polyline212"
                   style="fill:none;stroke:#000" />
                <polyline
                   points="268.62,177.955 268.64,177.945 491.79,65.455        "
                   id="polyline214"
                   style="fill:none;stroke:#000" />
                <polyline
                   points="268.54,177.995 268.58,177.995 268.58,177.985 268.58,177.955          268.62,177.955 268.62,177.915 268.62,177.905 469.54,29.285 469.58,29.285        "
                   id="polyline216"
                   style="fill:none;stroke:#000" />
                <line
                   x1="268.62"
                   y1="177.855"
                   x2="441.5"
                   y2="-2.425"
                   id="line218"
                   style="fill:none;stroke:#000" />
                <line
                   x1="268.62"
                   y1="177.825"
                   x2="408.5"
                   y2="-29.045"
                   id="line220"
                   style="fill:none;stroke:#000" />
                <polyline
                   points="268.58,177.905 268.62,177.905 268.62,177.865        "
                   id="polyline222"
                   style="fill:none;stroke:#000" />
                <polyline
                   points="268.58,177.865 268.62,177.865 268.62,177.855 268.62,177.825          371.54,-49.795        "
                   id="polyline224"
                   style="fill:none;stroke:#000" />
                <polyline
                   points="268.54,177.955 268.58,177.955 268.58,177.915 268.58,177.905        "
                   id="polyline226"
                   style="fill:none;stroke:#000" />
                <polyline
                   points="268.54,177.905 268.58,177.905 268.58,177.865 331.5,-63.965        "
                   id="polyline228"
                   style="fill:none;stroke:#000" />
                <line
                   x1="268.54001"
                   y1="177.745"
                   x2="289.70999"
                   y2="-71.044998"
                   id="line230"
                   style="fill:none;stroke:#000" />
                <polyline
                   points="268.54,177.905 268.54,177.745 247.29,-71.045        "
                   id="polyline232"
                   style="fill:none;stroke:#000" />
                <polyline
                   points="268.54,177.955 268.54,177.915 268.54,177.905 205.54,-63.965        "
                   id="polyline234"
                   style="fill:none;stroke:#000" />
                <line
                   x1="268.45999"
                   y1="177.86501"
                   x2="165.5"
                   y2="-49.794998"
                   id="line236"
                   style="fill:none;stroke:#000" />
                <line
                   x1="268.45999"
                   y1="177.86501"
                   x2="128.5"
                   y2="-29.045"
                   id="line238"
                   style="fill:none;stroke:#000" />
                <polyline
                   points="268.54,177.995 268.54,177.985 268.54,177.955 268.5,177.955 268.46,177.865          95.54,-2.425        "
                   id="polyline240"
                   style="fill:none;stroke:#000" />
                <polyline
                   points="268.46,177.955 67.5,29.285 67.46,29.285        "
                   id="polyline242"
                   style="fill:none;stroke:#000" />
                <line
                   x1="268.41"
                   y1="177.955"
                   x2="45.209999"
                   y2="65.455002"
                   id="line244"
                   style="fill:none;stroke:#000" />
                <polyline
                   points="268.5,177.995 268.5,177.955 268.46,177.955        "
                   id="polyline246"
                   style="fill:none;stroke:#000" />
                <polyline
                   points="268.46,177.995 268.46,177.955 268.41,177.955 29.5,104.745        "
                   id="polyline248"
                   style="fill:none;stroke:#000" />
                <line
                   x1="268.44"
                   y1="177.995"
                   x2="20.58"
                   y2="146.245"
                   id="line250"
                   style="fill:none;stroke:#000" />
                <line
                   x1="268.44"
                   y1="177.995"
                   x2="18.790001"
                   y2="188.495"
                   id="line252"
                   style="fill:none;stroke:#000" />
                <polyline
                   points="268.5,177.995 268.46,177.995 268.44,177.995 24.08,230.705        "
                   id="polyline254"
                   style="fill:none;stroke:#000" />
                <line
                   x1="268.48001"
                   y1="178.045"
                   x2="36.580002"
                   y2="271.245"
                   id="line256"
                   style="fill:none;stroke:#000" />
                <line
                   x1="268.37"
                   y1="178.11501"
                   x2="55.619999"
                   y2="309.07501"
                   id="line258"
                   style="fill:none;stroke:#000" />
                <polyline
                   points="268.54,177.995 268.5,177.995 268.5,178.035 268.48,178.045 268.48,178.056          268.47,178.056 268.45,178.065 268.43,178.075 268.37,178.115 80.91,343.245        "
                   id="polyline260"
                   style="fill:none;stroke:#000" />
                <polyline
                   points="268.5,178.075 111.46,372.535 111.45,372.545 111.41,372.575        "
                   id="polyline262"
                   style="fill:none;stroke:#000" />
                <line
                   x1="268.5"
                   y1="178.11501"
                   x2="146.58"
                   y2="396.245"
                   id="line264"
                   style="fill:none;stroke:#000" />
                <line
                   x1="268.5"
                   y1="178.155"
                   x2="185.28999"
                   y2="413.82501"
                   id="line266"
                   style="fill:none;stroke:#000" />
                <polyline
                   points="268.54,178.035 268.5,178.035 268.5,178.045 268.5,178.075 268.5,178.105          268.5,178.115        "
                   id="polyline268"
                   style="fill:none;stroke:#000" />
                <polyline
                   points="268.54,177.995 268.54,178.035 268.54,178.045 268.54,178.105          268.54,178.115 268.5,178.115 268.5,178.155 268.5,178.325 268.5,178.335 226.29,424.325        "
                   id="polyline270"
                   style="fill:none;stroke:#000" />
              </g>
            </g>
          </g>
        </g>
      </g>
    </g>
    <g
       id="g272">
      <text
         transform="translate(260.2056,-43.334)"
         id="text274"
         style="font-size:22.58060074px;fill:#fff;font-family:Verdana">0</text>
      <text
         transform="matrix(0.6561,-0.7547,0.7547,0.6561,92.939,42.5786)"
         id="text276"
         style="font-size:22.58110046px;fill:#fff;font-family:Verdana">28</text>
      <text
         transform="matrix(0.9848,-0.1736,0.1736,0.9848,217.835,-38.2451)"
         id="text278"
         style="font-size:22.58029938px;fill:#fff;font-family:Verdana">26</text>
      <text
         transform="matrix(-0.829,0.5592,-0.5592,-0.829,406.3203,354.4316)"
         id="text280"
         style="font-size:22.57999992px;fill:#fff;font-family:Verdana">30</text>
      <text
         transform="matrix(-0.7193,0.6947,-0.6947,-0.7193,431.1611,328.4082)"
         id="text282"
         style="font-size:22.58069992px;fill:#fff;font-family:Verdana">11</text>
      <text
         transform="matrix(0.5299,-0.848,0.848,0.5299,77.4844,69.9102)"
         id="text284"
         style="font-size:22.5795002px;fill:#fff;font-family:Verdana">7</text>
      <text
         transform="matrix(-0.5878,-0.809,0.809,-0.5878,99.8999,320.7998)"
         id="text286"
         style="font-size:22.58049965px;fill:#fff;font-family:Verdana">20</text>
      <text
         transform="matrix(0.9848,0.1736,-0.1736,0.9848,292.127,-40.9053)"
         id="text288"
         style="font-size:22.58029938px;fill:#fff;font-family:Verdana">32</text>
      <text
         transform="matrix(0.2079,0.9781,-0.9781,0.2079,483.0469,116.3809)"
         id="text290"
         style="font-size:22.5795002px;fill:#fff;font-family:Verdana">17</text>
      <text
         transform="matrix(-0.9962,-0.0872,0.0872,-0.9962,258.0562,398.3291)"
         id="text292"
         style="font-size:22.58090019px;fill:#fff;font-family:Verdana">5</text>
      <text
         transform="matrix(0.0349,-0.9994,0.9994,0.0349,48.165,183.7227)"
         id="text294"
         style="font-size:22.58090019px;fill:#fff;font-family:Verdana">22</text>
      <text
         transform="matrix(0.0349,0.9994,-0.9994,0.0349,491.2051,155.1602)"
         id="text296"
         style="font-size:22.58090019px;fill:#fff;font-family:Verdana">34</text>
      <text
         transform="matrix(0.9455,0.3256,-0.3256,0.9455,328.1631,-33.4512)"
         id="text298"
         style="font-size:22.58049965px;fill:#fff;font-family:Verdana">15</text>
      <text
         transform="matrix(0.9455,-0.3256,0.3256,0.9455,188,-26.8262)"
         id="text300"
         style="font-size:22.58049965px;fill:#fff;font-family:Verdana">3</text>
      <text
         transform="matrix(-0.9659,-0.2588,0.2588,-0.9659,226.3936,398.0381)"
         id="text302"
         style="font-size:22.57999992px;fill:#fff;font-family:Verdana">24</text>
      <text
         transform="matrix(-0.1219,-0.9925,0.9925,-0.1219,50.0112,214.1543)"
         id="text304"
         style="font-size:22.57970047px;fill:#fff;font-family:Verdana">9</text>
      <text
         transform="matrix(-0.5878,0.809,-0.809,-0.5878,456.5527,298.9902)"
         id="text306"
         style="font-size:22.58049965px;fill:#fff;font-family:Verdana">36</text>
      <text
         transform="matrix(-0.454,0.891,-0.891,-0.454,473.832,264.8887)"
         id="text308"
         style="font-size:22.58060074px;fill:#fff;font-family:Verdana">13</text>
      <text
         transform="matrix(-0.7193,-0.6947,0.6947,-0.7193,118.6035,343.5049)"
         id="text310"
         style="font-size:22.58069992px;fill:#fff;font-family:Verdana">1</text>
      <text
         transform="matrix(-0.2924,0.9563,-0.9563,-0.2924,485.8164,230.0801)"
         id="text312"
         style="font-size:22.58069992px;fill:#fff;font-family:Verdana">27</text>
      <text
         transform="matrix(-0.9962,0.0872,-0.0872,-0.9962,301.8975,399.6807)"
         id="text314"
         style="font-size:22.58090019px;fill:#fff;font-family:Verdana">10</text>
      <text
         transform="matrix(0.3746,0.9272,-0.9272,0.3746,470.2764,80.9541)"
         id="text316"
         style="font-size:22.58090019px;fill:#fff;font-family:Verdana">25</text>
      <text
         transform="matrix(0.3746,-0.9272,0.9272,0.3746,58.502,109.3818)"
         id="text318"
         style="font-size:22.58090019px;fill:#fff;font-family:Verdana">29</text>
      <text
         transform="matrix(0.7771,-0.6293,0.6293,0.7771,118.2402,16.0195)"
         id="text320"
         style="font-size:22.5795002px;fill:#fff;font-family:Verdana">12</text>
      <text
         transform="matrix(-0.9136,0.4067,-0.4067,-0.9136,366.707,379.6719)"
         id="text322"
         style="font-size:22.57939911px;fill:#fff;font-family:Verdana">8</text>
      <text
         transform="matrix(0.8746,0.4848,-0.4848,0.8746,363.5371,-23.2412)"
         id="text324"
         style="font-size:22.5802002px;fill:#fff;font-family:Verdana">19</text>
      <text
         transform="matrix(-0.2924,-0.9563,0.9563,-0.2924,61.9619,257.4033)"
         id="text326"
         style="font-size:22.58069992px;fill:#fff;font-family:Verdana">31</text>
      <text
         transform="matrix(0.2079,-0.9781,0.9781,0.2079,49.9077,146.2695)"
         id="text328"
         style="font-size:22.5795002px;fill:#fff;font-family:Verdana">18</text>
      <text
         transform="matrix(-0.1219,0.9925,-0.9925,-0.1219,488.8633,200.4199)"
         id="text330"
         style="font-size:22.57970047px;fill:#fff;font-family:Verdana">6</text>
      <text
         transform="matrix(0.6561,0.7547,-0.7547,0.6561,423.6338,21.0464)"
         id="text332"
         style="font-size:22.58110046px;fill:#fff;font-family:Verdana">21</text>
      <text
         transform="matrix(-0.829,-0.5592,0.5592,-0.829,155.855,369.1963)"
         id="text334"
         style="font-size:22.57999992px;fill:#fff;font-family:Verdana">33</text>
      <text
         transform="matrix(-0.9136,-0.4067,0.4067,-0.9136,189.4722,385.7168)"
         id="text336"
         style="font-size:22.57939911px;fill:#fff;font-family:Verdana">16</text>
      <text
         transform="matrix(0.7771,0.6293,-0.6293,0.7771,402.8125,2.4663)"
         id="text338"
         style="font-size:22.5795002px;fill:#fff;font-family:Verdana">4</text>
      <text
         transform="matrix(-0.9659,0.2588,-0.2588,-0.9659,336.9004,389.3203)"
         id="text340"
         style="font-size:22.57999992px;fill:#fff;font-family:Verdana">23</text>
      <text
         transform="matrix(0.8746,-0.4848,0.4848,0.8746,148.4897,-8.0317)"
         id="text342"
         style="font-size:22.5802002px;fill:#fff;font-family:Verdana">35</text>
      <text
         transform="matrix(-0.454,-0.891,0.891,-0.454,78.7217,289.0557)"
         id="text344"
         style="font-size:22.58060074px;fill:#fff;font-family:Verdana">14</text>
      <text
         transform="matrix(0.5299,0.848,-0.848,0.5299,452.2266,57.3516)"
         id="text346"
         style="font-size:22.5795002px;fill:#fff;font-family:Verdana">2</text>
    </g>
  </g>
</svg>
